<?xml version="1.0" encoding="utf-8"?>
<!DOCTYPE svg PUBLIC "-//W3C//DTD SVG 1.1//EN" "http://www.w3.org/Graphics/SVG/1.1/DTD/svg11.dtd">
<svg version="1.1" id="Layer_1" xmlns="http://www.w3.org/2000/svg" xmlns:xlink="http://www.w3.org/1999/xlink" x="0px" y="0px"
    width="128px" height="128px" viewBox="0 0 128 128" enable-background="new 0 0 128 128" xml:space="preserve">
<linearGradient id="Background-Gradient" gradientUnits="userSpaceOnUse" x1="64" y1="128" x2="64" y2="0">
  <stop offset="0" style="stop-color:#0075BE"/>
  <stop offset="1" style="stop-color:#A9D2EE"/>
</linearGradient>
<circle id="Background" fill="url(#Background-Gradient)" cx="63.5" cy="63.5" r="64"/>
<g id="Drive">
  <path id="Drive-Front" fill="#FFFFFF" d="M103.5,105.5h-80v-20h80V105.5z M99.5,99.5c-1.104,0-2,0.896-2,2s0.896,2,2,2s2-0.896,2-2 S100.604,99.5,99.5,99.5z"/>
  <polygon id="Drive-Top" fill="#FFFFFF" points="85.407,55.5 77.5,64.537 69.594,55.501 57.5,55.5 57.5,63.5 41.5,63.5 41.5,55.5 39.5,55.5 23.5,83.5 103.5,83.5 87.5,55.5"/>
</g>
<g id="Arrows">
  <g id="Download">
    <polygon fill="#FFFFFF" points="83.5,45.5 91.5,45.5 77.5,61.5 63.5,45.5 71.5,45.5 71.5,29.5 83.5,29.5"/>
    <rect x="71.5" y="19.5" fill="#FFFFFF" width="12" height="8"/>
    <rect x="71.5" y="13.5" fill="#FFFFFF" width="12" height="4"/>
    <rect x="71.5" y="9.5" fill="#FFFFFF" width="12" height="2"/>
  </g>
  <g id="Upload">
    <polygon fill="#FFFFFF" points="43.5,25.5 35.5,25.5 49.5,9.5 63.5,25.5 55.5,25.5 55.5,41.5 43.5,41.5"/>
    <rect x="43.5" y="43.5" fill="#FFFFFF" width="12" height="8"/>
    <rect x="43.5" y="53.5" fill="#FFFFFF" width="12" height="4"/>
    <rect x="43.5" y="59.5" fill="#FFFFFF" width="12" height="2"/>
  </g>
</g>
</svg>
